<?xml version="1.0" standalone="no"?>
<!DOCTYPE svg PUBLIC "-//W3C//DTD SVG 20010904//EN"
 "http://www.w3.org/TR/2001/REC-SVG-20010904/DTD/svg10.dtd">
<svg version="1.0" xmlns="http://www.w3.org/2000/svg"
 width="399.000000pt" height="399.000000pt" viewBox="0 0 399.000000 399.000000"
 preserveAspectRatio="xMidYMid meet">
<metadata>
Created by potrace 1.15, written by Peter Selinger 2001-2017
</metadata>
<g transform="translate(0.000000,399.000000) scale(0.100000,-0.100000)"
fill="#000000" stroke="none">
<path d="M0 1995 l0 -1995 1995 0 1995 0 0 1995 0 1995 -1995 0 -1995 0 0
-1995z m1310 613 c-31 -145 -56 -264 -55 -265 0 -1 21 5 45 13 49 17 155 15
222 -5 86 -26 167 -133 199 -261 20 -82 18 -305 -5 -410 -72 -335 -246 -560
-496 -644 -135 -45 -304 -44 -413 3 -125 54 -197 178 -197 341 0 38 52 301
146 742 80 376 148 685 150 688 6 5 377 57 425 59 l35 1 -56 -262z m1838 220
c-80 -357 -298 -1412 -298 -1444 0 -34 4 -44 21 -49 76 -24 153 51 202 198 6
15 20 17 103 17 l96 0 -6 -26 c-4 -14 -24 -64 -44 -112 -113 -261 -280 -392
-501 -392 -44 0 -97 7 -123 16 -56 19 -121 72 -138 114 l-13 30 -52 -49 c-172
-163 -432 -170 -574 -16 -50 55 -77 110 -96 203 -47 218 33 549 185 772 124
182 292 281 478 281 92 1 130 -5 174 -27 33 -17 24 -41 84 241 25 121 48 222
50 225 6 5 377 57 425 59 l37 1 -10 -42z"/>
<path d="M1251 2099 c-24 -5 -46 -11 -48 -13 -9 -9 -143 -642 -143 -677 0 -62
60 -94 124 -64 86 41 171 221 203 430 25 165 -1 302 -62 325 -15 6 -27 10 -28
9 -1 -1 -22 -5 -46 -10z"/>
<path d="M2414 2111 c-127 -78 -261 -444 -241 -661 9 -103 40 -134 111 -110
36 11 109 83 119 116 6 18 137 631 137 639 0 2 -7 11 -16 19 -21 22 -72 20
-110 -3z"/>
</g>
</svg>
